<svg width="360" height="800" viewBox="0 0 360 800" fill="none" xmlns="http://www.w3.org/2000/svg">
<g clip-path="url(#clip0_638_11060)">
<rect width="360" height="800" fill="white"/>
<path d="M112.96 674.263C112.924 666.748 86.5067 605.647 79.7889 670.585C73.071 735.524 36.3889 742.986 39.7636 663.03C43.0034 586.269 -5.97254 592.142 -25.0368 643.669C-37.1071 676.293 -28.6512 709.001 -10.7164 739.429" stroke="#3200E2" stroke-opacity="0.05" stroke-width="9" stroke-linecap="round"/>
<path d="M145.767 617.056C138.813 619.906 92.066 667.298 154.789 649.188C217.513 631.079 238.179 662.29 162.786 689.127C90.4055 714.892 114.205 758.098 169.122 756.461C203.891 755.425 231.046 735.327 252.535 707.296" stroke="#3200E2" stroke-opacity="0.05" stroke-width="9" stroke-linecap="round"/>
<path d="M352.931 759.61C359.138 755.372 394.976 699.275 337.407 730.065C279.839 760.855 253.119 734.639 321.258 692.671C386.675 652.38 354.39 615.087 301.022 628.138C267.233 636.402 244.865 661.72 229.694 693.616" stroke="#3200E2" stroke-opacity="0.05" stroke-width="9" stroke-linecap="round"/>
<rect width="360" height="276" fill="#0E409D"/>
<path d="M277.041 103C270.79 107.173 234.375 162.898 292.259 132.703C350.142 102.509 376.59 129 308.02 170.262C242.191 209.876 274.09 247.5 327.59 235C361.463 227.086 384.09 202 399.59 170.262" stroke="#3200E2" stroke-opacity="0.05" stroke-width="9" stroke-linecap="round"/>
<path d="M138.462 256.752C141.442 251.505 147.365 199.631 116.688 242.487C86.0104 285.344 57.3211 277.6 91.6611 223.105C124.629 170.788 87.9605 157.6 53.9949 186.76C32.49 205.223 25.3353 230.985 25.7346 258.504" stroke="#3200E2" stroke-opacity="0.05" stroke-width="9" stroke-linecap="round"/>
</g>
<defs>
<clipPath id="clip0_638_11060">
<rect width="360" height="800" fill="white"/>
</clipPath>
</defs>
</svg>
